<?xml version="1.0" standalone="no"?>
<!DOCTYPE svg PUBLIC "-//W3C//DTD SVG 20010904//EN"
 "http://www.w3.org/TR/2001/REC-SVG-20010904/DTD/svg10.dtd">
<svg version="1.0" xmlns="http://www.w3.org/2000/svg"
 width="512.000000pt" height="512.000000pt" viewBox="0 0 512.000000 512.000000"
 preserveAspectRatio="xMidYMid meet">
<metadata>
Created by potrace 1.14, written by Peter Selinger 2001-2017
</metadata>
<g transform="translate(0.000000,512.000000) scale(0.100000,-0.100000)"
fill="#000000" stroke="none">
<path d="M2385 5113 c-185 -19 -258 -40 -420 -120 -521 -258 -932 -727 -1123
-1278 -34 -99 -133 -404 -136 -420 -2 -9 -27 -90 -133 -420 -19 -60 -37 -121
-39 -134 -3 -14 -8 -29 -11 -35 -4 -5 -8 -64 -9 -130 -3 -138 14 -223 67 -334
54 -113 113 -181 308 -352 41 -36 86 -76 100 -88 14 -13 53 -47 85 -75 33 -29
64 -57 70 -62 6 -6 86 -77 178 -158 l167 -147 -50 -52 c-104 -109 -170 -229
-211 -380 -21 -79 -22 -103 -22 -484 -1 -383 0 -401 18 -420 19 -19 52 -19
1483 -21 l1462 -3 28 24 28 24 -1 534 0 533 -27 51 c-14 29 -43 66 -64 83 -62
51 -113 62 -280 61 -81 -1 -153 -1 -159 -1 -13 1 -54 39 -54 50 0 4 53 55 118
112 64 57 122 108 128 114 6 5 44 39 84 75 142 125 254 225 270 240 9 8 53 48
99 89 126 114 191 210 243 361 17 51 22 92 25 190 3 149 4 144 -155 640 -61
190 -123 383 -138 430 -195 621 -610 1111 -1176 1391 -103 51 -188 82 -278
100 -51 10 -405 19 -475 12z"/>
</g>
</svg>
